<?xml version="1.0" encoding="UTF-8" standalone="no"?>
<svg
   xmlns:dc="http://purl.org/dc/elements/1.1/"
   xmlns:cc="http://creativecommons.org/ns#"
   xmlns:rdf="http://www.w3.org/1999/02/22-rdf-syntax-ns#"
   xmlns:svg="http://www.w3.org/2000/svg"
   xmlns="http://www.w3.org/2000/svg"
   xmlns:sodipodi="http://sodipodi.sourceforge.net/DTD/sodipodi-0.dtd"
   xmlns:inkscape="http://www.inkscape.org/namespaces/inkscape"
   inkscape:export-ydpi="48"
   inkscape:export-xdpi="48"
   inkscape:export-filename="/home/epsi/Documents/illustration/html-css-js.png"
   width="550"
   height="600"
   viewBox="0 0 145.52083 158.75"
   version="1.1"
   id="svg8"
   inkscape:version="1.0 (4035a4fb49, 2020-05-01)"
   sodipodi:docname="html-css-js.svg">
  <defs
     id="defs2" />
  <sodipodi:namedview
     fit-margin-bottom="0"
     fit-margin-right="0"
     fit-margin-left="0"
     fit-margin-top="0"
     id="base"
     pagecolor="#ffffff"
     bordercolor="#666666"
     borderopacity="1.0"
     inkscape:pageopacity="0.0"
     inkscape:pageshadow="2"
     inkscape:zoom="0.62514668"
     inkscape:cx="600.00004"
     inkscape:cy="400.00005"
     inkscape:document-units="px"
     inkscape:current-layer="layer35"
     inkscape:document-rotation="0"
     showgrid="false"
     units="px"
     inkscape:pagecheckerboard="true"
     inkscape:window-width="1916"
     inkscape:window-height="992"
     inkscape:window-x="0"
     inkscape:window-y="24"
     inkscape:window-maximized="1"
     showguides="false" />
  <metadata
     id="metadata5">
    <rdf:RDF>
      <cc:Work
         rdf:about="">
        <dc:format>image/svg+xml</dc:format>
        <dc:type
           rdf:resource="http://purl.org/dc/dcmitype/StillImage" />
        <dc:title></dc:title>
      </cc:Work>
    </rdf:RDF>
  </metadata>
  <g
     transform="translate(37.041679,-26.458328)"
     inkscape:groupmode="layer"
     id="layer34"
     inkscape:label="All"
     style="display:inline">
    <g
       inkscape:groupmode="layer"
       id="layer35"
       inkscape:label="Shape"
       style="display:inline">
      <g
         transform="translate(-66.145833,-26.458432)"
         id="g1928">
        <circle
           r="29.104166"
           cy="132.29167"
           cx="68.791664"
           id="circle1906"
           style="fill:#c8e6c9;stroke-width:0;stroke-opacity:0.25098" />
        <circle
           style="fill:#4caf50;stroke-width:0;stroke-opacity:0.25098"
           id="circle1908"
           cx="68.791664"
           cy="132.29167"
           r="27.78125" />
        <circle
           style="fill:#81c784;stroke-width:0;stroke-opacity:0.25098"
           id="circle1910"
           cx="68.791664"
           cy="132.29167"
           r="26.458334" />
        <circle
           r="21.166666"
           cy="132.29167"
           cx="68.791664"
           id="circle1912"
           style="fill:#ffffff;stroke-width:0;stroke-opacity:0.25098" />
      </g>
      <g
         transform="translate(-66.145833,-26.458432)"
         id="g1910">
        <path
           sodipodi:nodetypes="sssssssss"
           inkscape:connector-curvature="0"
           id="path2049"
           d="m 145.60901,150.8125 c -5.11438,0 -9.74458,-2.07302 -13.0962,-5.42464 -1.67581,-1.67581 -3.63482,-4.27935 -5.42463,-5.88705 -8.02569,-7.20915 -21.25485,-4.65195 -21.25485,-7.20915 0,-2.5572 13.22916,0 21.25485,-7.20914 1.78981,-1.60771 3.74882,-4.21125 5.42463,-5.88706 3.35162,-3.35161 7.98182,-5.42463 13.0962,-5.42463 10.22877,0 18.52083,8.29206 18.52083,18.52083 0,10.22877 -8.29206,18.52084 -18.52083,18.52084 z"
           style="display:inline;fill:#c8e6c9;fill-opacity:1;stroke:none;stroke-width:0.785901;stroke-miterlimit:4;stroke-dasharray:4.7154, 4.7154;stroke-dashoffset:0;stroke-opacity:1" />
        <path
           style="display:inline;fill:#4caf50;fill-opacity:1;stroke:none;stroke-width:0.729765;stroke-miterlimit:4;stroke-dasharray:4.37859, 4.37859;stroke-dashoffset:0;stroke-opacity:1"
           d="m 145.32238,149.48958 c -4.74907,0 -9.04854,-1.92495 -12.16076,-5.03716 -1.55611,-1.55611 -3.37519,-3.97369 -5.03715,-5.46655 -7.45243,-6.69421 -15.39001,-4.31967 -15.39001,-6.69421 0,-2.37454 7.93758,0 15.39001,-6.6942 1.66196,-1.49287 3.48104,-3.91045 5.03715,-5.46656 3.11222,-3.1122 7.41169,-5.03715 12.16076,-5.03715 9.49814,0 17.19791,7.69977 17.19791,17.19791 0,9.49814 -7.69977,17.19792 -17.19791,17.19792 z"
           id="path2046"
           inkscape:connector-curvature="0"
           sodipodi:nodetypes="sssssssss" />
        <path
           sodipodi:nodetypes="sssssssss"
           inkscape:connector-curvature="0"
           id="path620-6-38"
           d="m 145.03575,148.16667 c -4.38376,0 -8.3525,-1.77688 -11.22532,-4.64969 -1.43641,-1.43641 -3.11556,-3.66802 -4.64968,-5.04605 -6.87917,-6.17927 -6.87917,-3.98739 -6.87917,-6.17927 0,-2.19188 0,0 6.87917,-6.17926 1.53412,-1.37804 3.21327,-3.60965 4.64968,-5.04606 2.87282,-2.8728 6.84156,-4.64968 11.22532,-4.64968 8.76752,0 15.875,7.10748 15.875,15.875 0,8.76752 -7.10748,15.87501 -15.875,15.87501 z"
           style="display:inline;fill:#81c784;fill-opacity:1;stroke:none;stroke-width:0.673629;stroke-miterlimit:4;stroke-dasharray:4.04178, 4.04178;stroke-dashoffset:0;stroke-opacity:1" />
        <ellipse
           transform="rotate(150)"
           ry="13.229167"
           rx="13.229166"
           cy="-187.08582"
           cx="-59.458809"
           id="ellipse622-7-5"
           style="display:inline;fill:#ffffff;fill-opacity:1;stroke:none;stroke-width:0.673629;stroke-miterlimit:4;stroke-dasharray:4.04178, 4.04178;stroke-dashoffset:0;stroke-opacity:1" />
      </g>
      <g
         transform="translate(-66.145833,-26.458432)"
         id="g1904">
        <path
           style="display:inline;fill:#c8e6c9;fill-opacity:1;stroke:none;stroke-width:0.785901;stroke-miterlimit:4;stroke-dasharray:4.7154, 4.7154;stroke-dashoffset:0;stroke-opacity:1"
           d="m 136.20593,91.069803 c -3.61641,3.616413 -8.3563,5.424612 -13.09621,5.424612 -2.36995,0 -5.59616,-0.455751 -7.99856,-0.32698 -10.77266,0.577381 -18.318876,11.740025 -20.127086,9.931805 -1.80822,-1.80821 9.354426,-9.354424 9.931806,-20.127076 0.12877,-2.402409 -0.32698,-5.628619 -0.32698,-7.998573 0,-4.739899 1.8082,-9.479791 5.42462,-13.096204 7.23283,-7.232833 18.95957,-7.232833 26.19241,0 7.23283,7.232833 7.23284,18.959583 0,26.192416 z"
           id="path2085"
           inkscape:connector-curvature="0"
           sodipodi:nodetypes="sssssssss" />
        <path
           sodipodi:nodetypes="sssssssss"
           inkscape:connector-curvature="0"
           id="path2087"
           d="m 135.06781,90.337035 c -3.3581,3.3581 -7.75943,5.037139 -12.16077,5.037146 -2.20067,0 -5.19644,-0.423203 -7.42723,-0.303631 -10.00319,0.536142 -13.93685,7.82791 -15.615906,6.14886 -1.67905,-1.679055 5.612716,-5.612718 6.148866,-15.615896 0.11956,-2.230802 -0.30364,-5.226573 -0.30364,-7.427245 2e-5,-4.401329 1.67905,-8.802659 5.03715,-12.160758 6.7162,-6.7162 17.60532,-6.7162 24.32152,0 6.7162,6.716199 6.71621,17.605325 1e-5,24.321524 z"
           style="display:inline;fill:#4caf50;fill-opacity:1;stroke:none;stroke-width:0.729765;stroke-miterlimit:4;stroke-dasharray:4.37859, 4.37859;stroke-dashoffset:0;stroke-opacity:1" />
        <path
           style="display:inline;fill:#81c784;fill-opacity:1;stroke:none;stroke-width:0.673629;stroke-miterlimit:4;stroke-dasharray:4.04178, 4.04178;stroke-dashoffset:0;stroke-opacity:1"
           d="m 133.92969,89.604275 c -3.09978,3.099786 -7.16255,4.649665 -11.22533,4.649672 -2.03139,0 -4.79671,-0.390648 -6.85591,-0.280276 -9.23371,0.494904 -7.68382,2.044798 -9.23371,0.494904 -1.5499,-1.549893 0,0 0.49491,-9.233704 0.11036,-2.059208 -0.28028,-4.824533 -0.28028,-6.855924 1e-5,-4.062766 1.54989,-8.125533 4.64967,-11.22532 6.19958,-6.199573 16.25107,-6.199573 22.45065,0 6.19957,6.199573 6.19957,16.251075 0,22.450648 z"
           id="path2089"
           inkscape:connector-curvature="0"
           sodipodi:nodetypes="sssssssss" />
        <ellipse
           transform="rotate(-15)"
           style="display:inline;fill:#ffffff;fill-opacity:1;stroke:none;stroke-width:0.673629;stroke-miterlimit:4;stroke-dasharray:4.04178, 4.04178;stroke-dashoffset:0;stroke-opacity:1"
           id="ellipse2091"
           cx="98.237335"
           cy="107.46648"
           rx="13.229166"
           ry="13.229167" />
      </g>
      <g
         transform="translate(-66.145833,-26.458432)"
         id="g1916">
        <path
           sodipodi:nodetypes="sssssssss"
           inkscape:connector-curvature="0"
           id="path2097"
           d="m 110.01353,199.70595 c -3.61641,-3.61641 -5.42461,-8.35631 -5.42461,-13.09621 0,-2.36996 0.45575,-5.59617 0.32698,-7.99857 -0.57738,-10.77266 -11.740016,-18.31887 -9.931806,-20.12709 1.80821,-1.80821 9.354426,9.35443 20.127076,9.93182 2.40241,0.12876 5.62862,-0.32699 7.99857,-0.32699 4.7399,1e-5 9.47979,1.80821 13.09621,5.42462 7.23283,7.23283 7.23283,18.95958 0,26.19241 -7.23284,7.23283 -18.95959,7.23284 -26.19242,1e-5 z"
           style="display:inline;fill:#c8e6c9;fill-opacity:1;stroke:none;stroke-width:0.785901;stroke-miterlimit:4;stroke-dasharray:4.7154, 4.7154;stroke-dashoffset:0;stroke-opacity:1" />
        <path
           style="display:inline;fill:#4caf50;fill-opacity:1;stroke:none;stroke-width:0.729765;stroke-miterlimit:4;stroke-dasharray:4.37859, 4.37859;stroke-dashoffset:0;stroke-opacity:1"
           d="m 110.7463,198.56782 c -3.3581,-3.3581 -5.03714,-7.75943 -5.03715,-12.16076 0,-2.20067 0.42321,-5.19644 0.30363,-7.42724 -0.53614,-10.00318 -7.827906,-13.93685 -6.148846,-15.6159 1.679046,-1.67905 5.612706,5.61272 15.615886,6.14887 2.2308,0.11956 5.22657,-0.30364 7.42724,-0.30364 4.40133,1e-5 8.80266,1.67905 12.16076,5.03715 6.7162,6.7162 6.7162,17.60532 0,24.32152 -6.7162,6.7162 -17.60532,6.7162 -24.32152,0 z"
           id="path2099"
           inkscape:connector-curvature="0"
           sodipodi:nodetypes="sssssssss" />
        <path
           sodipodi:nodetypes="sssssssss"
           inkscape:connector-curvature="0"
           id="path2101"
           d="m 111.47906,197.42971 c -3.09979,-3.09979 -4.64967,-7.16256 -4.64967,-11.22533 0,-2.03139 0.39065,-4.79672 0.28027,-6.85592 -0.4949,-9.23371 -2.04479,-7.68381 -0.4949,-9.23371 1.54989,-1.54989 0,0 9.2337,0.49491 2.05921,0.11037 4.82454,-0.28028 6.85593,-0.28028 4.06276,1e-5 8.12553,1.54989 11.22532,4.64968 6.19957,6.19957 6.19957,16.25107 0,22.45064 -6.19958,6.19957 -16.25108,6.19958 -22.45065,1e-5 z"
           style="display:inline;fill:#81c784;fill-opacity:1;stroke:none;stroke-width:0.673629;stroke-miterlimit:4;stroke-dasharray:4.04178, 4.04178;stroke-dashoffset:0;stroke-opacity:1" />
        <ellipse
           transform="rotate(-165)"
           ry="13.229167"
           rx="13.229166"
           cy="-148.10138"
           cx="-166.71655"
           id="ellipse2103"
           style="display:inline;fill:#ffffff;fill-opacity:1;stroke:none;stroke-width:0.673629;stroke-miterlimit:4;stroke-dasharray:4.04178, 4.04178;stroke-dashoffset:0;stroke-opacity:1" />
      </g>
    </g>
    <g
       inkscape:groupmode="layer"
       id="layer36"
       inkscape:label="Text">
      <text
         id="text1023"
         y="101.54346"
         x="2.417666"
         style="font-style:normal;font-variant:normal;font-weight:bold;font-stretch:normal;font-size:11.2889px;line-height:1.25;font-family:'Source Sans Pro';-inkscape-font-specification:'Source Sans Pro, Bold';font-variant-ligatures:normal;font-variant-caps:normal;font-variant-numeric:normal;font-variant-east-asian:normal;text-align:center;letter-spacing:0px;word-spacing:0px;text-anchor:middle;fill:#1b5e20;stroke-width:0.264583"
         xml:space="preserve"><tspan
           style="font-style:normal;font-variant:normal;font-weight:bold;font-stretch:normal;font-size:11.2889px;font-family:'Source Sans Pro';-inkscape-font-specification:'Source Sans Pro, Bold';font-variant-ligatures:normal;font-variant-caps:normal;font-variant-numeric:normal;font-variant-east-asian:normal;text-align:center;text-anchor:middle;fill:#1b5e20;stroke-width:0.264583"
           y="101.54346"
           x="2.4176657"
           id="tspan1021"
           sodipodi:role="line">Web</tspan><tspan
           id="tspan1025"
           style="font-style:normal;font-variant:normal;font-weight:bold;font-stretch:normal;font-size:11.2889px;font-family:'Source Sans Pro';-inkscape-font-specification:'Source Sans Pro, Bold';font-variant-ligatures:normal;font-variant-caps:normal;font-variant-numeric:normal;font-variant-east-asian:normal;text-align:center;text-anchor:middle;fill:#1b5e20;stroke-width:0.264583"
           y="115.65459"
           x="2.4176664"
           sodipodi:role="line">Page</tspan></text>
      <text
         xml:space="preserve"
         style="font-style:normal;font-variant:normal;font-weight:bold;font-stretch:normal;font-size:8.46667px;line-height:1.25;font-family:'Source Sans Pro';-inkscape-font-specification:'Source Sans Pro, Bold';font-variant-ligatures:normal;font-variant-caps:normal;font-variant-numeric:normal;font-variant-east-asian:normal;text-align:center;letter-spacing:0px;word-spacing:0px;text-anchor:middle;fill:#1b5e20;stroke-width:0.264583"
         x="56.383167"
         y="54.680653"
         id="text1854"><tspan
           y="54.680653"
           x="56.383167"
           id="tspan1856"
           sodipodi:role="line">HTML</tspan></text>
      <text
         inkscape:transform-center-y="-46.641269"
         inkscape:transform-center-x="19.993549"
         id="text1878"
         y="108.59337"
         x="78.841827"
         style="font-style:normal;font-variant:normal;font-weight:bold;font-stretch:normal;font-size:8.46667px;line-height:1.25;font-family:'Source Sans Pro';-inkscape-font-specification:'Source Sans Pro, Bold';font-variant-ligatures:normal;font-variant-caps:normal;font-variant-numeric:normal;font-variant-east-asian:normal;text-align:center;letter-spacing:0px;word-spacing:0px;text-anchor:middle;fill:#1b5e20;stroke-width:0.264583"
         xml:space="preserve"><tspan
           y="108.59337"
           x="78.841827"
           id="tspan1880"
           sodipodi:role="line">CSS</tspan></text>
      <text
         xml:space="preserve"
         style="font-style:normal;font-variant:normal;font-weight:bold;font-stretch:normal;font-size:8.46667px;line-height:1.25;font-family:'Source Sans Pro';-inkscape-font-specification:'Source Sans Pro, Bold';font-variant-ligatures:normal;font-variant-caps:normal;font-variant-numeric:normal;font-variant-east-asian:normal;text-align:center;letter-spacing:0px;word-spacing:0px;text-anchor:middle;fill:#1b5e20;stroke-width:0.264583"
         x="56.637447"
         y="162.50607"
         id="text1884"
         inkscape:transform-center-x="19.993549"
         inkscape:transform-center-y="-46.641269"><tspan
           y="162.50607"
           x="56.637447"
           id="tspan1886"
           sodipodi:role="line">JS</tspan></text>
    </g>
  </g>
</svg>
