<?xml version="1.0" encoding="UTF-8" standalone="no"?>
<svg
   xmlns:dc="http://purl.org/dc/elements/1.1/"
   xmlns:cc="http://creativecommons.org/ns#"
   xmlns:rdf="http://www.w3.org/1999/02/22-rdf-syntax-ns#"
   xmlns:svg="http://www.w3.org/2000/svg"
   xmlns="http://www.w3.org/2000/svg"
   xmlns:sodipodi="http://sodipodi.sourceforge.net/DTD/sodipodi-0.dtd"
   xmlns:inkscape="http://www.inkscape.org/namespaces/inkscape"
   width="120"
   height="100"
   viewBox="0 0 120 100"
   id="svg6170"
   version="1.1"
   inkscape:version="1.0 (4035a4fb49, 2020-05-01)"
   sodipodi:docname="logo-nano.svg"
   inkscape:export-filename="/media/Works/Sosial/2016 - inkscape/Logo - 93/ide-logo-nano-93 (01).png"
   inkscape:export-xdpi="90"
   inkscape:export-ydpi="90">
  <defs
     id="defs6172">
    <inkscape:path-effect
       effect="spiro"
       id="path-effect7032"
       is_visible="true"
       lpeversion="0" />
    <inkscape:path-effect
       is_visible="true"
       id="path-effect7026"
       effect="spiro"
       lpeversion="0" />
    <inkscape:path-effect
       is_visible="true"
       id="path-effect6911"
       effect="spiro"
       lpeversion="0" />
    <inkscape:path-effect
       is_visible="true"
       id="path-effect6897"
       effect="spiro"
       lpeversion="0" />
    <inkscape:path-effect
       effect="spiro"
       id="path-effect6778"
       is_visible="true"
       lpeversion="0" />
    <linearGradient
       x1="0"
       y1="0"
       x2="1"
       y2="0"
       gradientUnits="userSpaceOnUse"
       gradientTransform="matrix(49.930176,0,0,-49.930176,229.20166,755.65234)"
       spreadMethod="pad"
       id="linearGradient452">
      <stop
         style="stop-opacity:1;stop-color:#91268f"
         offset="0"
         id="stop454" />
      <stop
         style="stop-opacity:1;stop-color:#aa68ab"
         offset="1"
         id="stop456" />
    </linearGradient>
    <linearGradient
       id="linearGradient3700-6">
      <stop
         offset="0"
         style="stop-color:#9bd1ff;stop-opacity:1"
         id="stop29548" />
      <stop
         offset="1"
         style="stop-color:#306aa2;stop-opacity:1"
         id="stop29550" />
    </linearGradient>
    <linearGradient
       id="linearGradient29552">
      <stop
         offset="0"
         style="stop-color:#ffffc8;stop-opacity:1"
         id="stop12489" />
      <stop
         offset="1"
         style="stop-color:#e6dc00;stop-opacity:1"
         id="stop12491" />
    </linearGradient>
  </defs>
  <sodipodi:namedview
     id="base"
     pagecolor="#ffffff"
     bordercolor="#666666"
     borderopacity="1.0"
     inkscape:pageopacity="0.0"
     inkscape:pageshadow="2"
     inkscape:zoom="2.2333333"
     inkscape:cx="0"
     inkscape:cy="69.999977"
     inkscape:document-units="px"
     inkscape:current-layer="g884"
     showgrid="false"
     inkscape:window-width="1826"
     inkscape:window-height="902"
     inkscape:window-x="40"
     inkscape:window-y="64"
     inkscape:window-maximized="0"
     units="px"
     inkscape:snap-global="false"
     inkscape:document-rotation="0"
     inkscape:pagecheckerboard="true"
     showguides="false"
     fit-margin-top="0"
     fit-margin-left="0"
     fit-margin-right="0"
     fit-margin-bottom="0">
    <inkscape:grid
       type="xygrid"
       id="grid6757"
       originx="-150"
       originy="-80.000023" />
  </sodipodi:namedview>
  <metadata
     id="metadata6175">
    <rdf:RDF>
      <cc:Work
         rdf:about="">
        <dc:format>image/svg+xml</dc:format>
        <dc:type
           rdf:resource="http://purl.org/dc/dcmitype/StillImage" />
        <dc:title />
      </cc:Work>
    </rdf:RDF>
  </metadata>
  <g
     sodipodi:insensitive="true"
     inkscape:label="Red: Dark"
     inkscape:groupmode="layer"
     id="layer1"
     transform="translate(-150,-832.36218)"
     style="display:none">
    <g
       id="g920">
      <rect
         y="832.36218"
         x="150"
         height="100"
         width="120"
         id="rect891"
         style="opacity:1;fill:#ffffff;fill-opacity:0;stroke-width:5;stroke-opacity:0.247059" />
      <path
         sodipodi:nodetypes="scscscsscscscsccccscsccccscscscss"
         inkscape:connector-curvature="0"
         id="rect4260"
         d="m 207.85534,847.10333 c -4.88156,-4.88155 -12.79612,-4.88155 -17.67767,0 -2.92182,2.92253 -3.80677,7.04425 -3.44266,11.16076 0.27494,3.10835 -1.42725,6.07282 -3.62841,8.28468 -2.23281,2.21923 -5.23069,3.90008 -8.36685,3.62634 -4.08592,-0.35665 -8.1745,0.54849 -11.07858,3.44472 -4.88156,4.88156 -4.88156,12.79612 0,17.67767 3.03482,3.03483 7.18745,3.78441 11.16351,3.44266 3.10809,-0.26714 6.07076,1.42788 8.28192,3.62841 2.21923,2.23281 3.90009,5.2307 3.62634,8.36686 -0.35664,4.08592 0.54849,8.17449 3.44473,11.07858 4.88155,4.88155 12.79611,4.88155 17.67767,0 4.88155,-4.88155 4.88155,-12.79612 0,-17.67767 -2.92253,-2.92182 -7.04425,-3.80677 -11.16076,-3.44266 -3.10835,0.27494 -6.07282,-1.42725 -8.28468,-3.62841 -2.77496,-2.78168 -4.0805,-6.70625 -3.52483,-10.5959 l -0.0107,-0.0107 -0.0269,0.0269 c 0.027,-0.77761 0.004,-1.56324 -0.066,-2.34885 -0.27493,-3.10834 1.42726,-6.07281 3.62842,-8.28467 2.23281,-2.21924 5.23069,-3.90009 8.36686,-3.62634 0.75834,0.0662 1.51677,0.0882 2.26771,0.0628 l -0.028,0.028 0.0135,0.0135 c 3.88829,-0.55548 7.81155,0.74895 10.59314,3.52207 2.21923,2.23281 3.90008,5.23069 3.62634,8.36685 -0.35665,4.08592 0.54849,8.1745 3.44472,11.07858 4.88156,4.88156 12.79612,4.88156 17.67767,0 4.88156,-4.88155 4.88156,-12.79611 0,-17.67767 -2.92253,-2.92182 -7.04425,-3.80676 -11.16075,-3.44265 -3.10835,0.27493 -6.07283,-1.42725 -8.28468,-3.62841 -2.20422,-2.21754 -3.89112,-5.18945 -3.62427,-8.30471 0.33991,-3.9682 -0.41785,-8.11178 -3.4468,-11.14073 z"
         style="display:inline;fill:#b71c1c;fill-opacity:1;fill-rule:evenodd;stroke:none;stroke-width:0.125;stroke-linecap:butt;stroke-linejoin:round;stroke-miterlimit:4;stroke-dasharray:none;stroke-dashoffset:0;stroke-opacity:1" />
      <path
         style="display:inline;fill:#f44336;fill-opacity:1;fill-rule:evenodd;stroke:none;stroke-width:0.125;stroke-linecap:butt;stroke-linejoin:round;stroke-miterlimit:4;stroke-dasharray:none;stroke-dashoffset:0;stroke-opacity:1"
         d="m 216.69417,917.81401 c 4.88156,4.88155 12.79612,4.88155 17.67767,0 2.92182,-2.92253 3.80677,-7.04425 3.44266,-11.16076 -0.27494,-3.10835 1.42725,-6.07282 3.62841,-8.28468 2.23281,-2.21923 5.23069,-3.90008 8.36685,-3.62634 4.08592,0.35665 8.1745,-0.54849 11.07859,-3.44473 4.88155,-4.88155 4.88155,-12.79611 0,-17.67767 -3.03483,-3.03482 -7.18746,-3.7844 -11.16352,-3.44265 -3.10809,0.26714 -6.07076,-1.42788 -8.28192,-3.62841 -2.21923,-2.23281 -3.90009,-5.2307 -3.62634,-8.36686 0.35664,-4.08592 -0.54849,-8.17449 -3.44473,-11.07858 -4.88155,-4.88155 -12.79611,-4.88155 -17.67767,0 -4.88155,4.88155 -4.88155,12.79612 0,17.67767 2.92253,2.92182 7.04425,3.80677 11.16076,3.44266 3.10835,-0.27494 6.07282,1.42725 8.28468,3.62841 2.77496,2.78168 4.0805,6.70624 3.52483,10.5959 l 0.0107,0.0107 0.0269,-0.0269 c -0.027,0.77761 -0.004,1.56324 0.066,2.34885 0.27493,3.10834 -1.42726,6.07281 -3.62842,8.28467 -2.23281,2.21924 -5.23069,3.90008 -8.36686,3.62634 -0.75834,-0.0662 -1.51677,-0.0882 -2.26771,-0.0628 l 0.028,-0.028 -0.0135,-0.0135 c -3.88829,0.55548 -7.81155,-0.74895 -10.59313,-3.52207 -2.21924,-2.23281 -3.90009,-5.23069 -3.62634,-8.36685 0.35664,-4.08592 -0.5485,-8.1745 -3.44473,-11.07859 -4.88156,-4.88155 -12.79612,-4.88155 -17.67767,0 -4.88155,4.88156 -4.88155,12.79612 0,17.67767 2.92253,2.92183 7.04425,3.80677 11.16075,3.44266 3.10835,-0.27494 6.07283,1.42725 8.28469,3.62841 2.2042,2.21754 3.89111,5.18945 3.62426,8.30471 -0.3399,3.9682 0.41785,8.11178 3.4468,11.14073 z"
         id="path90"
         inkscape:connector-curvature="0"
         sodipodi:nodetypes="scscscsscscscsccccscsccccscscscss" />
      <circle
         transform="rotate(45.000002)"
         r="12.5"
         cy="483.26657"
         cx="727.21844"
         id="path905"
         style="fill:#b71c1c;fill-opacity:1;fill-rule:evenodd;stroke:none;stroke-width:0.0933603;stroke-linecap:round;stroke-linejoin:round;stroke-miterlimit:4;stroke-dasharray:none;stroke-dashoffset:0;stroke-opacity:1" />
      <circle
         transform="rotate(45.000002)"
         style="fill:#e53935;fill-opacity:1;fill-rule:evenodd;stroke:none;stroke-width:0.0933603;stroke-linecap:round;stroke-linejoin:round;stroke-miterlimit:4;stroke-dasharray:none;stroke-dashoffset:0;stroke-opacity:1"
         id="circle907"
         cx="820.96844"
         cy="464.51657"
         r="12.5" />
    </g>
  </g>
  <g
     style="display:none"
     transform="translate(-150,-832.36218)"
     id="g863"
     inkscape:groupmode="layer"
     inkscape:label="Red: Bright"
     sodipodi:insensitive="true">
    <g
       id="g861">
      <rect
         style="opacity:1;fill:#ffffff;fill-opacity:0;stroke-width:5;stroke-opacity:0.247059"
         id="rect851"
         width="120"
         height="100"
         x="150"
         y="832.36218" />
      <path
         style="display:inline;fill:#ffcdd2;fill-opacity:1;fill-rule:evenodd;stroke:none;stroke-width:0.125;stroke-linecap:butt;stroke-linejoin:round;stroke-miterlimit:4;stroke-dasharray:none;stroke-dashoffset:0;stroke-opacity:1"
         d="m 207.85534,847.10333 c -4.88156,-4.88155 -12.79612,-4.88155 -17.67767,0 -2.92182,2.92253 -3.80677,7.04425 -3.44266,11.16076 0.27494,3.10835 -1.42725,6.07282 -3.62841,8.28468 -2.23281,2.21923 -5.23069,3.90008 -8.36685,3.62634 -4.08592,-0.35665 -8.1745,0.54849 -11.07858,3.44472 -4.88156,4.88156 -4.88156,12.79612 0,17.67767 3.03482,3.03483 7.18745,3.78441 11.16351,3.44266 3.10809,-0.26714 6.07076,1.42788 8.28192,3.62841 2.21923,2.23281 3.90009,5.2307 3.62634,8.36686 -0.35664,4.08592 0.54849,8.17449 3.44473,11.07858 4.88155,4.88155 12.79611,4.88155 17.67767,0 4.88155,-4.88155 4.88155,-12.79612 0,-17.67767 -2.92253,-2.92182 -7.04425,-3.80677 -11.16076,-3.44266 -3.10835,0.27494 -6.07282,-1.42725 -8.28468,-3.62841 -2.77496,-2.78168 -4.0805,-6.70625 -3.52483,-10.5959 l -0.0107,-0.0107 -0.0269,0.0269 c 0.027,-0.77761 0.004,-1.56324 -0.066,-2.34885 -0.27493,-3.10834 1.42726,-6.07281 3.62842,-8.28467 2.23281,-2.21924 5.23069,-3.90009 8.36686,-3.62634 0.75834,0.0662 1.51677,0.0882 2.26771,0.0628 l -0.028,0.028 0.0135,0.0135 c 3.88829,-0.55548 7.81155,0.74895 10.59314,3.52207 2.21923,2.23281 3.90008,5.23069 3.62634,8.36685 -0.35665,4.08592 0.54849,8.1745 3.44472,11.07858 4.88156,4.88156 12.79612,4.88156 17.67767,0 4.88156,-4.88155 4.88156,-12.79611 0,-17.67767 -2.92253,-2.92182 -7.04425,-3.80676 -11.16075,-3.44265 -3.10835,0.27493 -6.07283,-1.42725 -8.28468,-3.62841 -2.20422,-2.21754 -3.89112,-5.18945 -3.62427,-8.30471 0.33991,-3.9682 -0.41785,-8.11178 -3.4468,-11.14073 z"
         id="path853"
         inkscape:connector-curvature="0"
         sodipodi:nodetypes="scscscsscscscsccccscsccccscscscss" />
      <path
         sodipodi:nodetypes="scscscsscscscsccccscsccccscscscss"
         inkscape:connector-curvature="0"
         id="path855"
         d="m 216.69417,917.81401 c 4.88156,4.88155 12.79612,4.88155 17.67767,0 2.92182,-2.92253 3.80677,-7.04425 3.44266,-11.16076 -0.27494,-3.10835 1.42725,-6.07282 3.62841,-8.28468 2.23281,-2.21923 5.23069,-3.90008 8.36685,-3.62634 4.08592,0.35665 8.1745,-0.54849 11.07859,-3.44473 4.88155,-4.88155 4.88155,-12.79611 0,-17.67767 -3.03483,-3.03482 -7.18746,-3.7844 -11.16352,-3.44265 -3.10809,0.26714 -6.07076,-1.42788 -8.28192,-3.62841 -2.21923,-2.23281 -3.90009,-5.2307 -3.62634,-8.36686 0.35664,-4.08592 -0.54849,-8.17449 -3.44473,-11.07858 -4.88155,-4.88155 -12.79611,-4.88155 -17.67767,0 -4.88155,4.88155 -4.88155,12.79612 0,17.67767 2.92253,2.92182 7.04425,3.80677 11.16076,3.44266 3.10835,-0.27494 6.07282,1.42725 8.28468,3.62841 2.77496,2.78168 4.0805,6.70624 3.52483,10.5959 l 0.0107,0.0107 0.0269,-0.0269 c -0.027,0.77761 -0.004,1.56324 0.066,2.34885 0.27493,3.10834 -1.42726,6.07281 -3.62842,8.28467 -2.23281,2.21924 -5.23069,3.90008 -8.36686,3.62634 -0.75834,-0.0662 -1.51677,-0.0882 -2.26771,-0.0628 l 0.028,-0.028 -0.0135,-0.0135 c -3.88829,0.55548 -7.81155,-0.74895 -10.59313,-3.52207 -2.21924,-2.23281 -3.90009,-5.23069 -3.62634,-8.36685 0.35664,-4.08592 -0.5485,-8.1745 -3.44473,-11.07859 -4.88156,-4.88155 -12.79612,-4.88155 -17.67767,0 -4.88155,4.88156 -4.88155,12.79612 0,17.67767 2.92253,2.92183 7.04425,3.80677 11.16075,3.44266 3.10835,-0.27494 6.07283,1.42725 8.28469,3.62841 2.2042,2.21754 3.89111,5.18945 3.62426,8.30471 -0.3399,3.9682 0.41785,8.11178 3.4468,11.14073 z"
         style="display:inline;fill:#e57373;fill-opacity:1;fill-rule:evenodd;stroke:none;stroke-width:0.125;stroke-linecap:butt;stroke-linejoin:round;stroke-miterlimit:4;stroke-dasharray:none;stroke-dashoffset:0;stroke-opacity:1" />
      <circle
         style="fill:#ffcdd2;fill-opacity:1;fill-rule:evenodd;stroke:none;stroke-width:0.0933603;stroke-linecap:round;stroke-linejoin:round;stroke-miterlimit:4;stroke-dasharray:none;stroke-dashoffset:0;stroke-opacity:1"
         id="circle857"
         cx="727.21844"
         cy="483.26657"
         r="12.5"
         transform="rotate(45.000002)" />
      <circle
         r="12.5"
         cy="464.51657"
         cx="820.96844"
         id="circle859"
         style="fill:#e57373;fill-opacity:1;fill-rule:evenodd;stroke:none;stroke-width:0.0933603;stroke-linecap:round;stroke-linejoin:round;stroke-miterlimit:4;stroke-dasharray:none;stroke-dashoffset:0;stroke-opacity:1"
         transform="rotate(45.000002)" />
    </g>
  </g>
  <g
     sodipodi:insensitive="true"
     inkscape:label="Teal: Dark"
     inkscape:groupmode="layer"
     id="g75"
     transform="translate(-150,-832.36218)"
     style="display:none">
    <g
       id="g73">
      <rect
         y="832.36218"
         x="150"
         height="100"
         width="120"
         id="rect63"
         style="opacity:1;fill:#ffffff;fill-opacity:0;stroke-width:5;stroke-opacity:0.247059" />
      <path
         sodipodi:nodetypes="scscscsscscscsccccscsccccscscscss"
         inkscape:connector-curvature="0"
         id="path65"
         d="m 207.85534,847.10333 c -4.88156,-4.88155 -12.79612,-4.88155 -17.67767,0 -2.92182,2.92253 -3.80677,7.04425 -3.44266,11.16076 0.27494,3.10835 -1.42725,6.07282 -3.62841,8.28468 -2.23281,2.21923 -5.23069,3.90008 -8.36685,3.62634 -4.08592,-0.35665 -8.1745,0.54849 -11.07858,3.44472 -4.88156,4.88156 -4.88156,12.79612 0,17.67767 3.03482,3.03483 7.18745,3.78441 11.16351,3.44266 3.10809,-0.26714 6.07076,1.42788 8.28192,3.62841 2.21923,2.23281 3.90009,5.2307 3.62634,8.36686 -0.35664,4.08592 0.54849,8.17449 3.44473,11.07858 4.88155,4.88155 12.79611,4.88155 17.67767,0 4.88155,-4.88155 4.88155,-12.79612 0,-17.67767 -2.92253,-2.92182 -7.04425,-3.80677 -11.16076,-3.44266 -3.10835,0.27494 -6.07282,-1.42725 -8.28468,-3.62841 -2.77496,-2.78168 -4.0805,-6.70625 -3.52483,-10.5959 l -0.0107,-0.0107 -0.0269,0.0269 c 0.027,-0.77761 0.004,-1.56324 -0.066,-2.34885 -0.27493,-3.10834 1.42726,-6.07281 3.62842,-8.28467 2.23281,-2.21924 5.23069,-3.90009 8.36686,-3.62634 0.75834,0.0662 1.51677,0.0882 2.26771,0.0628 l -0.028,0.028 0.0135,0.0135 c 3.88829,-0.55548 7.81155,0.74895 10.59314,3.52207 2.21923,2.23281 3.90008,5.23069 3.62634,8.36685 -0.35665,4.08592 0.54849,8.1745 3.44472,11.07858 4.88156,4.88156 12.79612,4.88156 17.67767,0 4.88156,-4.88155 4.88156,-12.79611 0,-17.67767 -2.92253,-2.92182 -7.04425,-3.80676 -11.16075,-3.44265 -3.10835,0.27493 -6.07283,-1.42725 -8.28468,-3.62841 -2.20422,-2.21754 -3.89112,-5.18945 -3.62427,-8.30471 0.33991,-3.9682 -0.41785,-8.11178 -3.4468,-11.14073 z"
         style="display:inline;fill:#004d40;fill-opacity:1;fill-rule:evenodd;stroke:none;stroke-width:0.125;stroke-linecap:butt;stroke-linejoin:round;stroke-miterlimit:4;stroke-dasharray:none;stroke-dashoffset:0;stroke-opacity:1" />
      <path
         style="display:inline;fill:#00796b;fill-opacity:1;fill-rule:evenodd;stroke:none;stroke-width:0.125;stroke-linecap:butt;stroke-linejoin:round;stroke-miterlimit:4;stroke-dasharray:none;stroke-dashoffset:0;stroke-opacity:1"
         d="m 216.69417,917.81401 c 4.88156,4.88155 12.79612,4.88155 17.67767,0 2.92182,-2.92253 3.80677,-7.04425 3.44266,-11.16076 -0.27494,-3.10835 1.42725,-6.07282 3.62841,-8.28468 2.23281,-2.21923 5.23069,-3.90008 8.36685,-3.62634 4.08592,0.35665 8.1745,-0.54849 11.07859,-3.44473 4.88155,-4.88155 4.88155,-12.79611 0,-17.67767 -3.03483,-3.03482 -7.18746,-3.7844 -11.16352,-3.44265 -3.10809,0.26714 -6.07076,-1.42788 -8.28192,-3.62841 -2.21923,-2.23281 -3.90009,-5.2307 -3.62634,-8.36686 0.35664,-4.08592 -0.54849,-8.17449 -3.44473,-11.07858 -4.88155,-4.88155 -12.79611,-4.88155 -17.67767,0 -4.88155,4.88155 -4.88155,12.79612 0,17.67767 2.92253,2.92182 7.04425,3.80677 11.16076,3.44266 3.10835,-0.27494 6.07282,1.42725 8.28468,3.62841 2.77496,2.78168 4.0805,6.70624 3.52483,10.5959 l 0.0107,0.0107 0.0269,-0.0269 c -0.027,0.77761 -0.004,1.56324 0.066,2.34885 0.27493,3.10834 -1.42726,6.07281 -3.62842,8.28467 -2.23281,2.21924 -5.23069,3.90008 -8.36686,3.62634 -0.75834,-0.0662 -1.51677,-0.0882 -2.26771,-0.0628 l 0.028,-0.028 -0.0135,-0.0135 c -3.88829,0.55548 -7.81155,-0.74895 -10.59313,-3.52207 -2.21924,-2.23281 -3.90009,-5.23069 -3.62634,-8.36685 0.35664,-4.08592 -0.5485,-8.1745 -3.44473,-11.07859 -4.88156,-4.88155 -12.79612,-4.88155 -17.67767,0 -4.88155,4.88156 -4.88155,12.79612 0,17.67767 2.92253,2.92183 7.04425,3.80677 11.16075,3.44266 3.10835,-0.27494 6.07283,1.42725 8.28469,3.62841 2.2042,2.21754 3.89111,5.18945 3.62426,8.30471 -0.3399,3.9682 0.41785,8.11178 3.4468,11.14073 z"
         id="path67"
         inkscape:connector-curvature="0"
         sodipodi:nodetypes="scscscsscscscsccccscsccccscscscss" />
      <circle
         transform="rotate(45.000002)"
         r="12.5"
         cy="483.26657"
         cx="727.21844"
         id="circle69"
         style="fill:#004d40;fill-opacity:1;fill-rule:evenodd;stroke:none;stroke-width:0.0933603;stroke-linecap:round;stroke-linejoin:round;stroke-miterlimit:4;stroke-dasharray:none;stroke-dashoffset:0;stroke-opacity:1" />
      <circle
         transform="rotate(45.000002)"
         style="fill:#00796b;fill-opacity:1;fill-rule:evenodd;stroke:none;stroke-width:0.0933603;stroke-linecap:round;stroke-linejoin:round;stroke-miterlimit:4;stroke-dasharray:none;stroke-dashoffset:0;stroke-opacity:1"
         id="circle71"
         cx="820.96844"
         cy="464.51657"
         r="12.5" />
    </g>
  </g>
  <g
     sodipodi:insensitive="true"
     style="display:inline"
     transform="translate(-150,-832.36218)"
     id="g884"
     inkscape:groupmode="layer"
     inkscape:label="Teal: Bright">
    <g
       id="g882">
      <rect
         style="opacity:1;fill:#ffffff;fill-opacity:0;stroke-width:5;stroke-opacity:0.247059"
         id="rect872"
         width="120"
         height="100"
         x="150"
         y="832.36218" />
      <path
         style="display:inline;fill:#b2dfdb;fill-opacity:1;fill-rule:evenodd;stroke:none;stroke-width:0.125;stroke-linecap:butt;stroke-linejoin:round;stroke-miterlimit:4;stroke-dasharray:none;stroke-dashoffset:0;stroke-opacity:1"
         d="m 207.85534,847.10333 c -4.88156,-4.88155 -12.79612,-4.88155 -17.67767,0 -2.92182,2.92253 -3.80677,7.04425 -3.44266,11.16076 0.27494,3.10835 -1.42725,6.07282 -3.62841,8.28468 -2.23281,2.21923 -5.23069,3.90008 -8.36685,3.62634 -4.08592,-0.35665 -8.1745,0.54849 -11.07858,3.44472 -4.88156,4.88156 -4.88156,12.79612 0,17.67767 3.03482,3.03483 7.18745,3.78441 11.16351,3.44266 3.10809,-0.26714 6.07076,1.42788 8.28192,3.62841 2.21923,2.23281 3.90009,5.2307 3.62634,8.36686 -0.35664,4.08592 0.54849,8.17449 3.44473,11.07858 4.88155,4.88155 12.79611,4.88155 17.67767,0 4.88155,-4.88155 4.88155,-12.79612 0,-17.67767 -2.92253,-2.92182 -7.04425,-3.80677 -11.16076,-3.44266 -3.10835,0.27494 -6.07282,-1.42725 -8.28468,-3.62841 -2.77496,-2.78168 -4.0805,-6.70625 -3.52483,-10.5959 l -0.0107,-0.0107 -0.0269,0.0269 c 0.027,-0.77761 0.004,-1.56324 -0.066,-2.34885 -0.27493,-3.10834 1.42726,-6.07281 3.62842,-8.28467 2.23281,-2.21924 5.23069,-3.90009 8.36686,-3.62634 0.75834,0.0662 1.51677,0.0882 2.26771,0.0628 l -0.028,0.028 0.0135,0.0135 c 3.88829,-0.55548 7.81155,0.74895 10.59314,3.52207 2.21923,2.23281 3.90008,5.23069 3.62634,8.36685 -0.35665,4.08592 0.54849,8.1745 3.44472,11.07858 4.88156,4.88156 12.79612,4.88156 17.67767,0 4.88156,-4.88155 4.88156,-12.79611 0,-17.67767 -2.92253,-2.92182 -7.04425,-3.80676 -11.16075,-3.44265 -3.10835,0.27493 -6.07283,-1.42725 -8.28468,-3.62841 -2.20422,-2.21754 -3.89112,-5.18945 -3.62427,-8.30471 0.33991,-3.9682 -0.41785,-8.11178 -3.4468,-11.14073 z"
         id="path874"
         inkscape:connector-curvature="0"
         sodipodi:nodetypes="scscscsscscscsccccscsccccscscscss" />
      <path
         sodipodi:nodetypes="scscscsscscscsccccscsccccscscscss"
         inkscape:connector-curvature="0"
         id="path876"
         d="m 216.69417,917.81401 c 4.88156,4.88155 12.79612,4.88155 17.67767,0 2.92182,-2.92253 3.80677,-7.04425 3.44266,-11.16076 -0.27494,-3.10835 1.42725,-6.07282 3.62841,-8.28468 2.23281,-2.21923 5.23069,-3.90008 8.36685,-3.62634 4.08592,0.35665 8.1745,-0.54849 11.07859,-3.44473 4.88155,-4.88155 4.88155,-12.79611 0,-17.67767 -3.03483,-3.03482 -7.18746,-3.7844 -11.16352,-3.44265 -3.10809,0.26714 -6.07076,-1.42788 -8.28192,-3.62841 -2.21923,-2.23281 -3.90009,-5.2307 -3.62634,-8.36686 0.35664,-4.08592 -0.54849,-8.17449 -3.44473,-11.07858 -4.88155,-4.88155 -12.79611,-4.88155 -17.67767,0 -4.88155,4.88155 -4.88155,12.79612 0,17.67767 2.92253,2.92182 7.04425,3.80677 11.16076,3.44266 3.10835,-0.27494 6.07282,1.42725 8.28468,3.62841 2.77496,2.78168 4.0805,6.70624 3.52483,10.5959 l 0.0107,0.0107 0.0269,-0.0269 c -0.027,0.77761 -0.004,1.56324 0.066,2.34885 0.27493,3.10834 -1.42726,6.07281 -3.62842,8.28467 -2.23281,2.21924 -5.23069,3.90008 -8.36686,3.62634 -0.75834,-0.0662 -1.51677,-0.0882 -2.26771,-0.0628 l 0.028,-0.028 -0.0135,-0.0135 c -3.88829,0.55548 -7.81155,-0.74895 -10.59313,-3.52207 -2.21924,-2.23281 -3.90009,-5.23069 -3.62634,-8.36685 0.35664,-4.08592 -0.5485,-8.1745 -3.44473,-11.07859 -4.88156,-4.88155 -12.79612,-4.88155 -17.67767,0 -4.88155,4.88156 -4.88155,12.79612 0,17.67767 2.92253,2.92183 7.04425,3.80677 11.16075,3.44266 3.10835,-0.27494 6.07283,1.42725 8.28469,3.62841 2.2042,2.21754 3.89111,5.18945 3.62426,8.30471 -0.3399,3.9682 0.41785,8.11178 3.4468,11.14073 z"
         style="display:inline;fill:#4db6ac;fill-opacity:1;fill-rule:evenodd;stroke:none;stroke-width:0.125;stroke-linecap:butt;stroke-linejoin:round;stroke-miterlimit:4;stroke-dasharray:none;stroke-dashoffset:0;stroke-opacity:1" />
      <circle
         style="fill:#b2dfdb;fill-opacity:1;fill-rule:evenodd;stroke:none;stroke-width:0.0933603;stroke-linecap:round;stroke-linejoin:round;stroke-miterlimit:4;stroke-dasharray:none;stroke-dashoffset:0;stroke-opacity:1"
         id="circle878"
         cx="727.21844"
         cy="483.26657"
         r="12.5"
         transform="rotate(45.000002)" />
      <circle
         r="12.5"
         cy="464.51657"
         cx="820.96844"
         id="circle880"
         style="fill:#4db6ac;fill-opacity:1;fill-rule:evenodd;stroke:none;stroke-width:0.0933603;stroke-linecap:round;stroke-linejoin:round;stroke-miterlimit:4;stroke-dasharray:none;stroke-dashoffset:0;stroke-opacity:1"
         transform="rotate(45.000002)" />
    </g>
  </g>
  <g
     sodipodi:insensitive="true"
     style="display:none"
     transform="translate(-150,-832.36218)"
     id="g47"
     inkscape:groupmode="layer"
     inkscape:label="Blue: Dark">
    <g
       id="g45">
      <rect
         style="opacity:1;fill:#ffffff;fill-opacity:0;stroke-width:5;stroke-opacity:0.247059"
         id="rect35"
         width="120"
         height="100"
         x="150"
         y="832.36218" />
      <path
         style="display:inline;fill:#0d47a1;fill-opacity:1;fill-rule:evenodd;stroke:none;stroke-width:0.125;stroke-linecap:butt;stroke-linejoin:round;stroke-miterlimit:4;stroke-dasharray:none;stroke-dashoffset:0;stroke-opacity:1"
         d="m 207.85534,847.10333 c -4.88156,-4.88155 -12.79612,-4.88155 -17.67767,0 -2.92182,2.92253 -3.80677,7.04425 -3.44266,11.16076 0.27494,3.10835 -1.42725,6.07282 -3.62841,8.28468 -2.23281,2.21923 -5.23069,3.90008 -8.36685,3.62634 -4.08592,-0.35665 -8.1745,0.54849 -11.07858,3.44472 -4.88156,4.88156 -4.88156,12.79612 0,17.67767 3.03482,3.03483 7.18745,3.78441 11.16351,3.44266 3.10809,-0.26714 6.07076,1.42788 8.28192,3.62841 2.21923,2.23281 3.90009,5.2307 3.62634,8.36686 -0.35664,4.08592 0.54849,8.17449 3.44473,11.07858 4.88155,4.88155 12.79611,4.88155 17.67767,0 4.88155,-4.88155 4.88155,-12.79612 0,-17.67767 -2.92253,-2.92182 -7.04425,-3.80677 -11.16076,-3.44266 -3.10835,0.27494 -6.07282,-1.42725 -8.28468,-3.62841 -2.77496,-2.78168 -4.0805,-6.70625 -3.52483,-10.5959 l -0.0107,-0.0107 -0.0269,0.0269 c 0.027,-0.77761 0.004,-1.56324 -0.066,-2.34885 -0.27493,-3.10834 1.42726,-6.07281 3.62842,-8.28467 2.23281,-2.21924 5.23069,-3.90009 8.36686,-3.62634 0.75834,0.0662 1.51677,0.0882 2.26771,0.0628 l -0.028,0.028 0.0135,0.0135 c 3.88829,-0.55548 7.81155,0.74895 10.59314,3.52207 2.21923,2.23281 3.90008,5.23069 3.62634,8.36685 -0.35665,4.08592 0.54849,8.1745 3.44472,11.07858 4.88156,4.88156 12.79612,4.88156 17.67767,0 4.88156,-4.88155 4.88156,-12.79611 0,-17.67767 -2.92253,-2.92182 -7.04425,-3.80676 -11.16075,-3.44265 -3.10835,0.27493 -6.07283,-1.42725 -8.28468,-3.62841 -2.20422,-2.21754 -3.89112,-5.18945 -3.62427,-8.30471 0.33991,-3.9682 -0.41785,-8.11178 -3.4468,-11.14073 z"
         id="path37"
         inkscape:connector-curvature="0"
         sodipodi:nodetypes="scscscsscscscsccccscsccccscscscss" />
      <path
         sodipodi:nodetypes="scscscsscscscsccccscsccccscscscss"
         inkscape:connector-curvature="0"
         id="path39"
         d="m 216.69417,917.81401 c 4.88156,4.88155 12.79612,4.88155 17.67767,0 2.92182,-2.92253 3.80677,-7.04425 3.44266,-11.16076 -0.27494,-3.10835 1.42725,-6.07282 3.62841,-8.28468 2.23281,-2.21923 5.23069,-3.90008 8.36685,-3.62634 4.08592,0.35665 8.1745,-0.54849 11.07859,-3.44473 4.88155,-4.88155 4.88155,-12.79611 0,-17.67767 -3.03483,-3.03482 -7.18746,-3.7844 -11.16352,-3.44265 -3.10809,0.26714 -6.07076,-1.42788 -8.28192,-3.62841 -2.21923,-2.23281 -3.90009,-5.2307 -3.62634,-8.36686 0.35664,-4.08592 -0.54849,-8.17449 -3.44473,-11.07858 -4.88155,-4.88155 -12.79611,-4.88155 -17.67767,0 -4.88155,4.88155 -4.88155,12.79612 0,17.67767 2.92253,2.92182 7.04425,3.80677 11.16076,3.44266 3.10835,-0.27494 6.07282,1.42725 8.28468,3.62841 2.77496,2.78168 4.0805,6.70624 3.52483,10.5959 l 0.0107,0.0107 0.0269,-0.0269 c -0.027,0.77761 -0.004,1.56324 0.066,2.34885 0.27493,3.10834 -1.42726,6.07281 -3.62842,8.28467 -2.23281,2.21924 -5.23069,3.90008 -8.36686,3.62634 -0.75834,-0.0662 -1.51677,-0.0882 -2.26771,-0.0628 l 0.028,-0.028 -0.0135,-0.0135 c -3.88829,0.55548 -7.81155,-0.74895 -10.59313,-3.52207 -2.21924,-2.23281 -3.90009,-5.23069 -3.62634,-8.36685 0.35664,-4.08592 -0.5485,-8.1745 -3.44473,-11.07859 -4.88156,-4.88155 -12.79612,-4.88155 -17.67767,0 -4.88155,4.88156 -4.88155,12.79612 0,17.67767 2.92253,2.92183 7.04425,3.80677 11.16075,3.44266 3.10835,-0.27494 6.07283,1.42725 8.28469,3.62841 2.2042,2.21754 3.89111,5.18945 3.62426,8.30471 -0.3399,3.9682 0.41785,8.11178 3.4468,11.14073 z"
         style="display:inline;fill:#1976d2;fill-opacity:1;fill-rule:evenodd;stroke:none;stroke-width:0.125;stroke-linecap:butt;stroke-linejoin:round;stroke-miterlimit:4;stroke-dasharray:none;stroke-dashoffset:0;stroke-opacity:1" />
      <circle
         style="fill:#0d47a1;fill-opacity:1;fill-rule:evenodd;stroke:none;stroke-width:0.0933603;stroke-linecap:round;stroke-linejoin:round;stroke-miterlimit:4;stroke-dasharray:none;stroke-dashoffset:0;stroke-opacity:1"
         id="circle41"
         cx="727.21844"
         cy="483.26657"
         r="12.5"
         transform="rotate(45.000002)" />
      <circle
         r="12.5"
         cy="464.51657"
         cx="820.96844"
         id="circle43"
         style="fill:#1976d2;fill-opacity:1;fill-rule:evenodd;stroke:none;stroke-width:0.0933603;stroke-linecap:round;stroke-linejoin:round;stroke-miterlimit:4;stroke-dasharray:none;stroke-dashoffset:0;stroke-opacity:1"
         transform="rotate(45.000002)" />
    </g>
  </g>
</svg>
