<?xml version="1.0" encoding="UTF-8" standalone="no"?>
<svg
   xmlns:dc="http://purl.org/dc/elements/1.1/"
   xmlns:cc="http://creativecommons.org/ns#"
   xmlns:rdf="http://www.w3.org/1999/02/22-rdf-syntax-ns#"
   xmlns:svg="http://www.w3.org/2000/svg"
   xmlns="http://www.w3.org/2000/svg"
   xmlns:sodipodi="http://sodipodi.sourceforge.net/DTD/sodipodi-0.dtd"
   xmlns:inkscape="http://www.inkscape.org/namespaces/inkscape"
   sodipodi:docname="css-preprocessors.svg"
   inkscape:version="1.0 (4035a4fb49, 2020-05-01)"
   id="svg8"
   version="1.1"
   viewBox="0 0 132.29167 169.33334"
   height="640"
   width="500"
   inkscape:export-filename="/home/epsi/Documents/illustration/css-preprocessors.png"
   inkscape:export-xdpi="48"
   inkscape:export-ydpi="48">
  <defs
     id="defs2" />
  <sodipodi:namedview
     showguides="false"
     inkscape:window-maximized="1"
     inkscape:window-y="24"
     inkscape:window-x="0"
     inkscape:window-height="982"
     inkscape:window-width="1906"
     inkscape:pagecheckerboard="true"
     units="px"
     showgrid="false"
     inkscape:document-rotation="0"
     inkscape:current-layer="layer31"
     inkscape:document-units="px"
     inkscape:cy="450"
     inkscape:cx="776.4508"
     inkscape:zoom="0.743125"
     inkscape:pageshadow="2"
     inkscape:pageopacity="0.0"
     borderopacity="1.0"
     bordercolor="#666666"
     pagecolor="#ffffff"
     id="base" />
  <metadata
     id="metadata5">
    <rdf:RDF>
      <cc:Work
         rdf:about="">
        <dc:format>image/svg+xml</dc:format>
        <dc:type
           rdf:resource="http://purl.org/dc/dcmitype/StillImage" />
        <dc:title />
      </cc:Work>
    </rdf:RDF>
  </metadata>
  <g
     inkscape:groupmode="layer"
     id="layer29"
     inkscape:label="CSS Preprocessor"
     style="display:inline">
    <g
       inkscape:groupmode="layer"
       id="layer30"
       inkscape:label="Shape"
       style="display:inline">
      <g
         id="g1675"
         transform="translate(-158.75013,-47.625125)">
        <circle
           r="29.104166"
           cy="132.29167"
           cx="211.66667"
           id="circle1236-6"
           style="fill:#c8e6c9;stroke-width:0;stroke-opacity:0.25098" />
        <circle
           style="fill:#4caf50;stroke-width:0;stroke-opacity:0.25098"
           id="circle1230-7"
           cx="211.66667"
           cy="132.29167"
           r="27.78125" />
        <circle
           style="fill:#81c784;stroke-width:0;stroke-opacity:0.25098"
           id="circle1232-5"
           cx="211.66667"
           cy="132.29167"
           r="26.458334" />
        <circle
           r="21.166666"
           cy="132.29167"
           cx="211.66667"
           id="path1216-3"
           style="fill:#ffffff;stroke-width:0;stroke-opacity:0.25098" />
      </g>
      <g
         id="g1918">
        <path
           style="display:inline;fill:#c8e6c9;fill-opacity:1;stroke:none;stroke-width:0.7859;stroke-miterlimit:4;stroke-dasharray:4.71541, 4.71541;stroke-dashoffset:0;stroke-opacity:1"
           d="m 21.69889,142.45375 c 1.06334,-5.00262 4.05373,-9.10064 8.02895,-11.68217 1.9876,-1.29079 4.94155,-2.66567 6.88625,-4.0821 8.72024,-6.35145 6.21894,-6.88312 8.72024,-6.35145 2.50133,0.53167 0,0 5.38298,9.34917 1.20044,2.08496 3.33981,4.54245 4.63057,6.53008 2.58153,3.97522 3.64656,8.93524 2.58322,13.93786 -2.12668,10.00526 -11.96155,16.3921 -21.9668,14.26542 -10.00525,-2.12667 -16.39209,-11.96155 -14.26541,-21.96681 z"
           id="path1442"
           inkscape:connector-curvature="0"
           sodipodi:nodetypes="sssssssss" />
        <path
           style="display:inline;fill:#43a047;fill-opacity:1;stroke:none;stroke-width:0.729765;stroke-miterlimit:4;stroke-dasharray:4.37859, 4.37859;stroke-dashoffset:0;stroke-opacity:1"
           d="m 23.05249,142.44843 c 0.98739,-4.64529 3.76419,-8.45059 7.45546,-10.84773 1.84563,-1.19859 4.58858,-2.47526 6.39437,-3.79052 8.09737,-5.89778 5.77473,-6.39148 8.09737,-5.89778 2.32266,0.49369 0,0 4.99847,8.68139 1.11471,1.93602 3.10125,4.21799 4.29981,6.06363 2.39714,3.69128 3.38611,8.29701 2.39873,12.94231 -1.97478,9.29059 -11.10716,15.22123 -20.39776,13.24645 -9.29059,-1.97478 -15.22123,-11.10716 -13.24645,-20.39775 z"
           id="path1440"
           inkscape:connector-curvature="0"
           sodipodi:nodetypes="sssssssss" />
        <path
           sodipodi:nodetypes="sssssssss"
           inkscape:connector-curvature="0"
           id="path627-9"
           d="m 24.40609,142.44311 c 0.91144,-4.28796 3.47464,-7.80054 6.88196,-10.01329 1.70366,-1.10639 4.23562,-2.28486 5.90251,-3.49894 7.47448,-5.44411 5.33051,-5.89982 7.47448,-5.44411 2.144,0.45573 0,0 4.61398,8.01359 1.02896,1.7871 2.8627,3.89353 3.96906,5.59721 2.21274,3.40733 3.12563,7.65877 2.2142,11.94674 -1.82287,8.57593 -10.25276,14.05036 -18.82869,12.22749 -8.57593,-1.82287 -14.05037,-10.25276 -12.2275,-18.82869 z"
           style="display:inline;fill:#81c784;fill-opacity:1;stroke:none;stroke-width:0.673629;stroke-miterlimit:4;stroke-dasharray:4.04178, 4.04178;stroke-dashoffset:0;stroke-opacity:1" />
        <ellipse
           transform="matrix(0.9781476,0.20791169,0.20791169,-0.9781476,0,0)"
           ry="13.229167"
           rx="13.229166"
           cy="-134.25606"
           cx="69.363358"
           id="ellipse629-3"
           style="display:inline;fill:#ffffff;fill-opacity:1;stroke:none;stroke-width:0.673629;stroke-miterlimit:4;stroke-dasharray:4.04178, 4.04178;stroke-dashoffset:0;stroke-opacity:1" />
      </g>
      <g
         id="g1912">
        <path
           style="display:inline;fill:#c8e6c9;fill-opacity:1;stroke:none;stroke-width:0.7859;stroke-miterlimit:4;stroke-dasharray:4.71541, 4.71541;stroke-dashoffset:0;stroke-opacity:1"
           d="m 44.20568,19.566442 c 2.08021,4.672219 2.06968,9.74529 0.37106,14.17037 -0.8493,2.212556 -2.43096,5.061141 -3.1717,7.350129 -3.32153,10.264063 -0.98543,9.223964 -3.32153,10.264063 -2.33613,1.040111 0,0 -9.85023,-4.399616 -2.19669,-0.981163 -5.37195,-1.711826 -7.58449,-2.561163 -4.42508,-1.698635 -8.20214,-5.085364 -10.28235,-9.757583 -4.16042,-9.344455 0.0421,-20.292314 9.38652,-24.452729 9.34445,-4.160416 20.29231,0.04207 24.45272,9.386529 z"
           id="path1490"
           inkscape:connector-curvature="0"
           sodipodi:nodetypes="sssssssss" />
        <path
           style="display:inline;fill:#43a047;fill-opacity:1;stroke:none;stroke-width:0.729765;stroke-miterlimit:4;stroke-dasharray:4.37859, 4.37859;stroke-dashoffset:0;stroke-opacity:1"
           d="m 43.11373,20.366367 c 1.93162,4.338492 1.92183,9.049205 0.34454,13.158209 -0.78864,2.054509 -2.25731,4.699627 -2.94515,6.825112 -3.08427,9.530919 -0.91503,8.565111 -3.08427,9.530919 -2.16926,0.965816 0,0 -9.14665,-4.085362 -2.03978,-0.911071 -4.98823,-1.589556 -7.04273,-2.37822 -4.109,-1.577304 -7.61628,-4.722118 -9.5479,-9.060609 -3.86325,-8.676992 0.0391,-18.842861 8.71605,-22.706106 8.677,-3.863246 18.84286,0.03907 22.70611,8.716057 z"
           id="path1492"
           inkscape:connector-curvature="0"
           sodipodi:nodetypes="sssssssss" />
        <path
           sodipodi:nodetypes="sssssssss"
           inkscape:connector-curvature="0"
           id="path1494"
           d="m 42.02176,21.166297 c 1.78304,4.004764 1.77401,8.353111 0.31805,12.146039 -0.72797,1.896472 -2.08368,4.33812 -2.7186,6.300108 -2.84703,8.797766 -0.84465,7.906252 -2.84703,8.797766 -2.00239,0.891522 0,0 -8.44305,-3.771099 -1.88288,-0.840993 -4.60453,-1.467282 -6.50099,-2.195281 -3.79292,-1.455974 -7.03041,-4.358881 -8.81344,-8.363645 -3.56608,-8.009528 0.0361,-17.393406 8.04559,-20.959478 8.00952,-3.566072 17.3934,0.03606 20.95947,8.04559 z"
           style="display:inline;fill:#81c784;fill-opacity:1;stroke:none;stroke-width:0.673629;stroke-miterlimit:4;stroke-dasharray:4.04178, 4.04178;stroke-dashoffset:0;stroke-opacity:1" />
        <ellipse
           transform="matrix(-0.91354546,0.40673664,0.40673664,0.91354546,0,0)"
           ry="13.229167"
           rx="13.229166"
           cy="36.428177"
           cx="-13.904688"
           id="ellipse1496"
           style="display:inline;fill:#ffffff;fill-opacity:1;stroke:none;stroke-width:0.673629;stroke-miterlimit:4;stroke-dasharray:4.04178, 4.04178;stroke-dashoffset:0;stroke-opacity:1" />
      </g>
      <g
         id="g1906">
        <path
           sodipodi:nodetypes="sssssssss"
           inkscape:connector-curvature="0"
           id="path1502"
           d="m 112.13863,56.264995 c -3.80073,3.42219 -8.62876,4.97985 -13.36216,4.73179 -2.36672,-0.12402 -5.56464,-0.74801 -7.9705,-0.74516 -10.78811,0.0128 -9.07703,1.91316 -10.78811,0.0128 -1.71111,-1.90038 0,0 1.14039,-10.727685 0.25433,-2.39237 -0.032,-5.638013 0.0921,-8.004724 0.24807,-4.733403 2.30186,-9.372158 6.10259,-12.794346 7.60146,-6.84439 19.31214,-6.23066 26.15652,1.370798 6.84438,7.601457 6.23065,19.31213 -1.37081,26.156517 z"
           style="display:inline;fill:#c8e6c9;fill-opacity:1;stroke:none;stroke-width:0.7859;stroke-miterlimit:4;stroke-dasharray:4.71541, 4.71541;stroke-dashoffset:0;stroke-opacity:1" />
        <path
           sodipodi:nodetypes="sssssssss"
           inkscape:connector-curvature="0"
           id="path1504"
           d="m 111.04042,55.473675 c -3.52925,3.17775 -8.01243,4.62413 -12.40773,4.39379 -2.19766,-0.11516 -5.16716,-0.69457 -7.40117,-0.69193 -10.01753,0.0119 -8.42866,1.77652 -10.01753,0.0119 -1.58889,-1.76463 0,0 1.05894,-9.961423 0.23615,-2.221487 -0.0297,-5.235294 0.0855,-7.43295 0.23036,-4.395304 2.13744,-8.702728 5.66669,-11.880476 7.0585,-6.355503 17.9327,-5.78561 24.2882,1.272891 6.3555,7.058501 5.78561,17.932697 -1.27289,24.288198 z"
           style="display:inline;fill:#43a047;fill-opacity:1;stroke:none;stroke-width:0.729765;stroke-miterlimit:4;stroke-dasharray:4.37859, 4.37859;stroke-dashoffset:0;stroke-opacity:1" />
        <path
           style="display:inline;fill:#81c784;fill-opacity:1;stroke:none;stroke-width:0.673629;stroke-miterlimit:4;stroke-dasharray:4.04178, 4.04178;stroke-dashoffset:0;stroke-opacity:1"
           d="m 109.94221,54.682345 c -3.25777,2.93331 -7.39609,4.26844 -11.45329,4.05582 -2.02861,-0.1063 -4.76969,-0.64115 -6.83185,-0.63871 -9.24696,0.011 -7.78031,1.63986 -9.24696,0.011 -1.46666,-1.62889 0,0 0.97749,-9.195155 0.21799,-2.050602 -0.0274,-4.832583 0.0789,-6.861189 0.21264,-4.057206 1.97303,-8.033283 5.2308,-10.966591 6.51554,-5.866616 16.55326,-5.340561 22.41987,1.174976 5.86662,6.515537 5.34056,16.553257 -1.17497,22.419869 z"
           id="path1506"
           inkscape:connector-curvature="0"
           sodipodi:nodetypes="sssssssss" />
        <ellipse
           transform="matrix(-0.6691306,-0.74314483,-0.74314483,0.6691306,0,0)"
           style="display:inline;fill:#ffffff;fill-opacity:1;stroke:none;stroke-width:0.673629;stroke-miterlimit:4;stroke-dasharray:4.04178, 4.04178;stroke-dashoffset:0;stroke-opacity:1"
           id="ellipse1508"
           cx="-98.327599"
           cy="-45.113335"
           rx="13.229166"
           ry="13.229167" />
      </g>
      <g
         id="g1900">
        <path
           style="display:inline;fill:#c8e6c9;fill-opacity:1;stroke:none;stroke-width:0.7859;stroke-miterlimit:4;stroke-dasharray:4.71541, 4.71541;stroke-dashoffset:0;stroke-opacity:1"
           d="m 98.22866,132.21353 c -4.42918,-2.55718 -7.40254,-6.66757 -8.62932,-11.24596 -0.61342,-2.2892 -1.00818,-5.52344 -1.75434,-7.81067 -3.34589,-10.25614 -4.62448,-8.04156 -3.34589,-10.25614 1.2786,-2.21461 0,0 10.55503,-2.23045 2.35387,-0.49741 5.35219,-1.772665 7.6414,-2.386035 4.57839,-1.22677 9.62477,-0.70695 14.05395,1.850245 8.85839,5.11439 11.89349,16.44155 6.77911,25.29993 -5.11439,8.85837 -16.44155,11.89348 -25.29994,6.77908 z"
           id="path1514"
           inkscape:connector-curvature="0"
           sodipodi:nodetypes="sssssssss" />
        <path
           style="display:inline;fill:#43a047;fill-opacity:1;stroke:none;stroke-width:0.729765;stroke-miterlimit:4;stroke-dasharray:4.37859, 4.37859;stroke-dashoffset:0;stroke-opacity:1"
           d="m 98.64189,130.92454 c -4.11282,-2.37454 -6.87379,-6.19134 -8.01294,-10.4427 -0.56959,-2.12567 -0.93617,-5.12889 -1.62903,-7.25274 -3.1069,-9.52357 -4.29417,-7.46717 -3.1069,-9.52357 1.18727,-2.05642 0,0 9.80111,-2.07114 2.18573,-0.46188 4.96988,-1.646025 7.09557,-2.215585 4.25137,-1.13915 8.93729,-0.65647 13.05011,1.718075 8.22564,4.74906 11.04395,15.26715 6.29487,23.49279 -4.74907,8.22564 -15.26715,11.04394 -23.49279,6.29487 z"
           id="path1516"
           inkscape:connector-curvature="0"
           sodipodi:nodetypes="sssssssss" />
        <path
           sodipodi:nodetypes="sssssssss"
           inkscape:connector-curvature="0"
           id="path1518"
           d="m 99.05512,129.63554 c -3.79645,-2.19187 -6.34504,-5.71506 -7.39657,-9.6394 -0.52577,-1.96217 -0.86415,-4.73438 -1.50371,-6.69485 -2.86791,-8.79098 -3.96384,-6.89277 -2.86791,-8.79098 1.09595,-1.89823 0,0 9.04717,-1.91182 2.0176,-0.42636 4.58759,-1.51942 6.54977,-2.04516 3.92434,-1.051525 8.2498,-0.605975 12.04625,1.58591 7.59289,4.38376 10.19441,14.09276 5.81065,21.68565 -4.38376,7.59289 -14.09276,10.19441 -21.68565,5.81065 z"
           style="display:inline;fill:#81c784;fill-opacity:1;stroke:none;stroke-width:0.673629;stroke-miterlimit:4;stroke-dasharray:4.04178, 4.04178;stroke-dashoffset:0;stroke-opacity:1" />
        <ellipse
           transform="matrix(0.5,-0.8660254,-0.8660254,-0.5,0,0)"
           ry="13.229167"
           rx="13.229166"
           cy="-150.60201"
           cx="-46.865116"
           id="ellipse1520"
           style="display:inline;fill:#ffffff;fill-opacity:1;stroke:none;stroke-width:0.673629;stroke-miterlimit:4;stroke-dasharray:4.04178, 4.04178;stroke-dashoffset:0;stroke-opacity:1" />
      </g>
    </g>
    <g
       style="display:inline"
       inkscape:groupmode="layer"
       id="layer31"
       inkscape:label="Icons">
      <text
         xml:space="preserve"
         style="font-style:normal;font-variant:normal;font-weight:bold;font-stretch:normal;font-size:14.1111px;line-height:1.25;font-family:'Source Sans Pro';-inkscape-font-specification:'Source Sans Pro, Bold';font-variant-ligatures:normal;font-variant-caps:normal;font-variant-numeric:normal;font-variant-east-asian:normal;letter-spacing:0px;word-spacing:0px;fill:#1b5e20;stroke-width:0.264583"
         x="41.191982"
         y="89.266762"
         id="text1846"><tspan
           sodipodi:role="line"
           id="tspan1844"
           x="41.191982"
           y="89.266762"
           style="font-style:normal;font-variant:normal;font-weight:bold;font-stretch:normal;font-size:14.1111px;font-family:'Source Sans Pro';-inkscape-font-specification:'Source Sans Pro, Bold';font-variant-ligatures:normal;font-variant-caps:normal;font-variant-numeric:normal;font-variant-east-asian:normal;fill:#1b5e20;stroke-width:0.264583">CSS</tspan></text>
      <text
         id="text1850"
         y="25.675915"
         x="19.337868"
         style="font-style:normal;font-variant:normal;font-weight:600;font-stretch:normal;font-size:6.35px;line-height:1.25;font-family:'Source Sans Pro';-inkscape-font-specification:'Source Sans Pro, Semi-Bold';font-variant-ligatures:normal;font-variant-caps:normal;font-variant-numeric:normal;font-variant-east-asian:normal;letter-spacing:0px;word-spacing:0px;fill:#1b5e20;stroke-width:0.264583"
         xml:space="preserve"><tspan
           sodipodi:role="line"
           id="tspan1852"
           x="19.337868"
           y="25.675915">SASS/</tspan><tspan
           sodipodi:role="line"
           id="tspan1854"
           x="19.337868"
           y="33.613415">SCSS</tspan></text>
      <text
         xml:space="preserve"
         style="font-style:normal;font-variant:normal;font-weight:600;font-stretch:normal;font-size:6.35px;line-height:1.25;font-family:'Source Sans Pro';-inkscape-font-specification:'Source Sans Pro, Semi-Bold';font-variant-ligatures:normal;font-variant-caps:normal;font-variant-numeric:normal;font-variant-east-asian:normal;letter-spacing:0px;word-spacing:0px;fill:#1b5e20;stroke-width:0.264583"
         x="92.473198"
         y="45.192101"
         id="text1860"><tspan
           sodipodi:role="line"
           id="tspan1862"
           x="92.473198"
           y="45.192101">LESS</tspan></text>
      <text
         id="text1866"
         y="147.5217"
         x="31.388086"
         style="font-style:normal;font-variant:normal;font-weight:600;font-stretch:normal;font-size:6.35px;line-height:1.25;font-family:'Source Sans Pro';-inkscape-font-specification:'Source Sans Pro, Semi-Bold';font-variant-ligatures:normal;font-variant-caps:normal;font-variant-numeric:normal;font-variant-east-asian:normal;letter-spacing:0px;word-spacing:0px;fill:#1b5e20;stroke-width:0.264583"
         xml:space="preserve"><tspan
           sodipodi:role="line"
           id="tspan1868"
           x="31.388086"
           y="147.5217">Stylus</tspan></text>
      <text
         xml:space="preserve"
         style="font-style:normal;font-variant:normal;font-weight:600;font-stretch:normal;font-size:6.35px;line-height:1.25;font-family:'Source Sans Pro';-inkscape-font-specification:'Source Sans Pro, Semi-Bold';font-variant-ligatures:normal;font-variant-caps:normal;font-variant-numeric:normal;font-variant-east-asian:normal;letter-spacing:0px;word-spacing:0px;fill:#1b5e20;stroke-width:0.264583"
         x="95.240242"
         y="118.19455"
         id="text1872"><tspan
           sodipodi:role="line"
           id="tspan1874"
           x="95.240242"
           y="118.19455">PostCSS</tspan></text>
    </g>
  </g>
</svg>
